<svg width="28" height="36" viewBox="0 0 28 36" fill="none" xmlns="http://www.w3.org/2000/svg">
<path d="M17.6397 7.90373C18.9672 7.90494 20.2795 8.19319 21.4909 8.74952C22.7024 9.30592 23.786 10.118 24.671 11.1327L27.4415 8.57107C25.6681 6.54848 23.3415 5.12106 20.7652 4.47516C18.189 3.82919 15.4828 3.99473 12.9996 4.95011C10.5165 5.90549 8.37171 7.60635 6.84531 9.83073C5.31885 12.0552 4.48165 14.6998 4.44282 17.4196C4.40399 20.1394 5.16543 22.808 6.62769 25.0773C8.09002 27.3466 10.1853 29.1111 12.6401 30.1406C15.0949 31.1701 17.7953 31.4168 20.3889 30.8485C22.9824 30.2802 25.3488 28.9232 27.1791 26.9548L24.4716 24.3177C23.393 25.4746 22.0517 26.3392 20.5678 26.8345C19.0838 27.3297 17.5032 27.4401 15.9675 27.1557C14.4317 26.8714 12.9886 26.2012 11.7671 25.2051C10.5456 24.2089 9.58381 22.9178 8.96775 21.4473C8.35162 19.9767 8.10037 18.3724 8.23648 16.778C8.37265 15.1835 8.89185 13.6484 9.74772 12.3101C10.6037 10.9717 11.7696 9.87165 13.1413 9.10839C14.513 8.34506 16.0477 7.94228 17.6083 7.93599L17.6397 7.90373Z" fill="white"/>
<path d="M17.9707 31.4754C15.0414 31.4735 12.1834 30.5974 9.78371 28.9659C7.38393 27.3343 5.55826 25.0259 4.5537 22.3533L1.05884 23.9297C2.37492 27.2487 4.69522 30.1027 7.71411 32.1156C10.733 34.1286 14.3088 35.2061 17.9707 35.2063V31.4754Z" fill="white"/>
<path d="M4.11442 16.9411C4.34131 13.3825 5.8995 10.0444 8.47274 7.60403C11.046 5.16373 14.4416 3.80388 17.9706 3.80043V0.0292969C13.4513 0.0291616 9.10497 1.78474 5.83104 4.93271C2.55712 8.08074 0.606237 12.3801 0.382324 16.9411H4.11442Z" fill="white"/>
</svg>
